<svg width="1386" height="1144" viewBox="0 0 1386 1144" fill="none" xmlns="http://www.w3.org/2000/svg">
<path opacity="0.3" fill-rule="evenodd" clip-rule="evenodd" d="M113.595 0.193115H113.061L112.764 0.636747L92.8017 30.4502H23.0018H22.0018V31.4502V136.19L0.38267 168.478L0.213606 168.73V169.034V438.494V438.799L0.383788 439.052L22.0018 471.198V537.52L0.387265 569.235L0.0332031 569.754L0.347923 570.299L22.0018 607.745V671.846L0.375114 705.125L0.213606 705.373V705.67V972.845V973.147L0.380073 973.398L22.0018 1006.02V1104.72V1105.72H23.0018H88.0842L112.761 1142.95L113.058 1143.4H113.595H425.128H425.652L425.95 1142.97L451.735 1105.72H524.512H525.094L525.382 1105.21L541.954 1076.03H561.973V1076.61H843.449L860.022 1105.79L860.309 1106.29H860.891H933.669L959.454 1143.54L959.752 1143.97H960.276H1271.81H1272.35L1272.64 1143.52L1297.32 1106.29H1362.4H1363.4V1105.29V1006.59L1385.02 973.969L1385.19 973.718V973.416V706.241V705.944L1385.03 705.696L1363.4 672.417V608.316L1385.06 570.87L1385.37 570.325L1385.02 569.806L1363.4 538.091V471.769L1385.02 439.623L1385.19 439.37V439.065V169.605V169.301L1385.02 169.049L1363.4 136.761V32.0212V31.0212H1362.4H1292.6L1272.64 1.20771L1272.34 0.764074H1271.81H960.276H959.75L959.452 1.19813L938.98 31.0212H851.717H851.167L850.872 31.4869L827.351 68.6998H823.431V68.1288H558.053L534.532 30.9159L534.237 30.4502H533.686H446.424L425.952 0.627175L425.654 0.193115H425.128H113.595ZM561.973 70.1288H559.317L579.343 101.811H800.878V102.382H806.061L826.087 70.6998H561.973V70.1288ZM584.526 103.811H578.792H578.241L577.946 103.346L556.951 70.1288H471.762H471.235L470.938 69.6948L445.371 32.4502H93.8695L24.0018 136.798V470.589L90.3429 569.24L90.7118 569.789L90.3516 570.343L24.0018 672.439V1005.42L89.1581 1103.72H450.687L470.94 1074.47L471.238 1074.03H471.762H540.79L559.956 1040.29L560.244 1039.78H560.826H813.492V1040.35H824.578H825.16L825.447 1040.86L844.614 1074.61H913.642H914.166L914.464 1075.04L934.716 1104.29H1296.25L1361.4 1005.99V673.01L1295.05 570.914L1294.69 570.36L1295.06 569.811L1361.4 471.159V137.369L1291.53 33.0212H940.033L914.466 70.2657L914.168 70.6998H913.642H828.453L807.457 103.917L807.163 104.382H806.612H584.526V103.811ZM571.911 1041.78H561.408L543.09 1074.03H823.431V1074.61H842.314L823.996 1042.35H571.911V1041.78ZM443.998 30.4502H95.2086L114.129 2.19312H424.601L443.998 30.4502ZM24.0018 32.4502H91.4626L24.0018 133.203V32.4502ZM2.21361 169.338L22.0018 139.785V467.614L2.21361 438.189V169.338ZM24.0018 537.828V474.173L88.3143 569.807L24.0018 668.769V607.477V537.828ZM2.39401 569.842L22.0018 541.071V603.75L2.39401 569.842ZM2.21361 705.966L22.0018 675.517V1002.4L2.21361 972.544V705.966ZM24.0018 1103.72V1009.04L86.7586 1103.72H24.0018ZM114.132 1141.4L90.4837 1105.72H449.303L424.604 1141.4H114.132ZM523.93 1103.72H453.12L472.286 1076.03H539.654L523.93 1103.72ZM472.288 68.1288L447.797 32.4502H533.135L555.687 68.1288H472.288ZM941.406 31.0212H1290.2L1271.28 2.76407H960.803L941.406 31.0212ZM1361.4 33.0212H1293.94L1361.4 133.774V33.0212ZM1383.19 169.909L1363.4 140.356V468.185L1383.19 438.76V169.909ZM1361.4 538.399V474.743L1297.09 570.378L1361.4 669.34V608.048V538.399ZM1383.01 570.413L1363.4 541.642V604.321L1383.01 570.413ZM1383.19 706.537L1363.4 676.088V1002.97L1383.19 973.115V706.537ZM1361.4 1104.29V1009.61L1298.65 1104.29H1361.4ZM1271.27 1141.97L1294.92 1106.29H936.101L960.8 1141.97H1271.27ZM861.474 1104.29H932.284L913.118 1076.61H845.75L861.474 1104.29ZM913.115 68.6998L937.607 33.0212H852.268L829.717 68.6998H913.115Z" fill="url(#paint0_linear_103_1858)"/>
<defs>
<linearGradient id="paint0_linear_103_1858" x1="692.702" y1="0.193115" x2="692.702" y2="1143.97" gradientUnits="userSpaceOnUse">
<stop stop-color="#FEBA8B"/>
<stop offset="0.462784" stop-color="#764023"/>
<stop offset="1" stop-color="#FEBA8B"/>
</linearGradient>
</defs>
</svg>
