<svg width="1093" height="68" viewBox="0 0 1093 68" fill="none" xmlns="http://www.w3.org/2000/svg">
<path fill-rule="evenodd" clip-rule="evenodd" d="M-193 2H40.4341L60.9471 20.486H-175.139V22.486H63.5505H234.462L255.042 41.6122H-26.5669H-104.506H-104.901L-105.19 41.8822L-118.575 54.4159H-182.446V56.4159H-120.711L-130.881 65.9393H-175.139V67.9393H-130.486H-130.091L-129.803 67.6692L-117.785 56.4159H-41.1806H-40.8045L-40.5216 56.168L-26.1908 43.6122H257.587H450H642.413H926.191L940.522 56.168L940.804 56.4159H941.181H1017.78L1029.8 67.6692L1030.09 67.9393H1030.49H1075.14V65.9393H1030.88L1020.71 56.4159H1082.45V54.4159H1018.57L1005.19 41.8822L1004.9 41.6122H1004.51H926.567H644.958L665.538 22.486H836.449H1075.14V20.486H839.053L859.566 2H1093V0H859.182H858.798L858.512 0.257143L836.065 20.486H665.145H664.752L664.464 20.7535L642.02 41.6122H450H257.98L235.536 20.7535L235.248 20.486H234.855H63.9346L41.4876 0.257143L41.2023 0H40.8182H-193V2ZM-41.5567 54.4159H-115.649L-104.111 43.6122H-29.2258L-41.5567 54.4159ZM941.557 54.4159H1015.65L1004.11 43.6122H929.226L941.557 54.4159Z" fill="url(#paint0_linear_79_213)"/>
<defs>
<linearGradient id="paint0_linear_79_213" x1="1093" y1="34.2874" x2="-170.268" y2="34.2872" gradientUnits="userSpaceOnUse">
<stop stop-color="#CAB2A3" stop-opacity="0.29"/>
<stop offset="0.47998" stop-color="#CAB2A3"/>
<stop offset="1" stop-color="#CAB2A3" stop-opacity="0.16"/>
</linearGradient>
</defs>
</svg>
