<svg width="1286" height="68" viewBox="0 0 1286 68" fill="none" xmlns="http://www.w3.org/2000/svg">
<path fill-rule="evenodd" clip-rule="evenodd" d="M0 2H233.434L253.947 20.486H17.8611V22.486H256.551H427.462L448.042 41.6122H166.433H88.4937H88.0986L87.8102 41.8822L74.425 54.4159H10.5543V56.4159H72.2891L62.1188 65.9393H17.8611V67.9393H62.5139H62.909L63.1974 67.6692L75.2152 56.4159H151.819H152.196L152.478 56.168L166.809 43.6122H450.587H643H835.413H1119.19L1133.52 56.168L1133.8 56.4159H1134.18H1210.78L1222.8 67.6692L1223.09 67.9393H1223.49H1268.14V65.9393H1223.88L1213.71 56.4159H1275.45V54.4159H1211.57L1198.19 41.8822L1197.9 41.6122H1197.51H1119.57H837.958L858.538 22.486H1029.45H1268.14V20.486H1032.05L1052.57 2H1286V0H1052.18H1051.8L1051.51 0.257143L1029.07 20.486H858.145H857.752L857.464 20.7535L835.02 41.6122H643H450.98L428.536 20.7535L428.248 20.486H427.855H256.935L234.488 0.257143L234.202 0H233.818H0V2ZM151.443 54.4159H77.3511L88.8888 43.6122H163.774L151.443 54.4159ZM1134.56 54.4159H1208.65L1197.11 43.6122H1122.23L1134.56 54.4159Z" fill="url(#paint0_linear_79_221)"/>
<defs>
<linearGradient id="paint0_linear_79_221" x1="1286" y1="34.2874" x2="22.7323" y2="34.2872" gradientUnits="userSpaceOnUse">
<stop stop-color="#CAB2A3" stop-opacity="0.29"/>
<stop offset="0.47998" stop-color="#CAB2A3"/>
<stop offset="1" stop-color="#CAB2A3" stop-opacity="0.16"/>
</linearGradient>
</defs>
</svg>
